<mxfile host="app.diagrams.net" modified="2023-08-15T06:25:44.350Z" agent="Mozilla/5.0 (Macintosh; Intel Mac OS X 10_15_7) AppleWebKit/537.36 (KHTML, like Gecko) Chrome/115.0.0.0 Safari/537.36" version="21.5.2" etag="m5GBdF1cZrroledw5bOO" type="github">
  <diagram name="Page-1" id="2DNhUu-XuCvEe5Ix3_4q">
    <mxGraphModel>
      <root>
        <mxCell id="0" />
        <mxCell id="1" parent="0" />
      </root>
    </mxGraphModel>
  </diagram>
</mxfile>
